<?xml version="1.0" encoding="UTF-8" standalone="no"?>
<svg
   width="128"
   height="128"
   viewBox="0 0 128 128"
   version="1.1"
   id="svg40"
   sodipodi:docname="tokio-logo.svg"
   inkscape:version="1.1.1 (3bf5ae0d25, 2021-09-20)"
   xmlns:inkscape="http://www.inkscape.org/namespaces/inkscape"
   xmlns:sodipodi="http://sodipodi.sourceforge.net/DTD/sodipodi-0.dtd"
   xmlns="http://www.w3.org/2000/svg"
   xmlns:svg="http://www.w3.org/2000/svg"
   xmlns:rdf="http://www.w3.org/1999/02/22-rdf-syntax-ns#"
   xmlns:cc="http://creativecommons.org/ns#"
   xmlns:dc="http://purl.org/dc/elements/1.1/">
  <sodipodi:namedview
     id="namedview42"
     pagecolor="#ffffff"
     bordercolor="#666666"
     borderopacity="1.0"
     inkscape:pageshadow="2"
     inkscape:pageopacity="0.0"
     inkscape:pagecheckerboard="0"
     showgrid="false"
     inkscape:zoom="1.7962963"
     inkscape:cx="-114.95876"
     inkscape:cy="89.628866"
     inkscape:window-width="2560"
     inkscape:window-height="1011"
     inkscape:window-x="0"
     inkscape:window-y="0"
     inkscape:window-maximized="1"
     inkscape:current-layer="svg40" />
  <!-- Generator: Sketch 40.1 (33804) - http://www.bohemiancoding.com/sketch -->
  <title
     id="title2">Mark Copy</title>
  <desc
     id="desc4">Created with Sketch.</desc>
  <defs
     id="defs6" />
  <g
     id="Page-1"
     stroke="none"
     stroke-width="1"
     fill="none"
     fill-rule="evenodd"
     transform="translate(4.0000153,10.214202)">
    <g
       id="01"
       transform="translate(-900,-275)"
       fill="#000000">
      <g
         id="Group-Copy-2"
         transform="translate(900,275)">
        <g
           id="Group">
          <g
             id="Mark-Copy">
            <polygon
               id="Line-Copy-3"
               transform="rotate(60,37,67)"
               points="35,76 39,76 39,74.051608 39,59.948392 39,58 35,58 35,59.948392 35,74.051608 " />
            <polygon
               id="Line"
               transform="rotate(-60,83,67)"
               points="81,76 85,76 85,74.051608 85,59.948392 85,58 81,58 81,59.948392 81,74.051608 " />
            <path
               d="M 80,54 C 80,42.954305 71.045695,34 60,34 48.954305,34 40,42.954305 40,54 c 0,11.045695 8.954305,20 20,20 11.045695,0 20,-8.954305 20,-20 z m -35.767196,0 c 0,-8.707982 7.059214,-15.767196 15.767196,-15.767196 8.707982,0 15.767196,7.059214 15.767196,15.767196 0,8.707982 -7.059214,15.767196 -15.767196,15.767196 -8.707982,0 -15.767196,-7.059214 -15.767196,-15.767196 z"
               id="Oval-Copy-2" />
            <circle
               id="Oval-Copy-6"
               cx="24"
               cy="75"
               r="3" />
            <circle
               id="Oval-Copy-12"
               cx="60"
               cy="96"
               r="3" />
            <circle
               id="Oval-Copy-13"
               cx="60"
               cy="12"
               r="3" />
            <circle
               id="Oval-Copy-14"
               cx="96"
               cy="33"
               r="3" />
            <circle
               id="Oval-Copy-16"
               cx="24"
               cy="33"
               r="3" />
            <circle
               id="Oval-Copy-15"
               cx="96"
               cy="75"
               r="3" />
            <circle
               id="ellipse17"
               cx="60"
               cy="54"
               r="3" />
            <polygon
               id="polygon19"
               points="-4.4231285e-13,52 -4.5474735e-13,56 2,56 40,56 42,56 42,52 40,52 2,52 " />
            <polygon
               id="polygon21"
               points="78,52 78,56 80,56 118,56 120,56 120,52 118,52 80,52 " />
            <polygon
               id="Line-Copy-4"
               points="71.823171,68.660434 68.366894,70.673926 69.37364,72.402064 88.501812,105.2367 89.508557,106.96483 92.964834,104.95134 91.958089,103.2232 72.829917,70.388572 " />
            <polygon
               id="polygon24"
               points="31.574623,0.41188572 28.118346,2.4253775 29.125091,4.153516 48.253263,36.988148 49.260009,38.716286 52.716286,36.702794 51.70954,34.974656 32.581368,2.1400242 " />
            <polygon
               id="Line-Copy-7"
               points="91.716286,2.4253775 88.260009,0.41188572 87.253263,2.1400242 68.125091,34.974656 67.118346,36.702794 70.574623,38.716286 71.581368,36.988148 90.70954,4.153516 " />
            <polygon
               id="polygon27"
               points="51.83325,70.868803 48.376973,68.855311 47.370228,70.58345 28.242056,103.41808 27.23531,105.14622 30.691587,107.15971 31.698333,105.43157 50.826505,72.596941 " />
            <polygon
               id="polygon29"
               points="58,89 62,89 62,87.016763 62,72.983237 62,71 58,71 58,72.983237 58,87.016763 " />
            <polygon
               id="polygon31"
               points="58,37 62,37 62,35.051608 62,20.948392 62,19 58,19 58,20.948392 58,35.051608 " />
            <polygon
               id="Line-Copy-2"
               transform="rotate(-60,37,41)"
               points="35,50 39,50 39,48.051608 39,33.948392 39,32 35,32 35,33.948392 35,48.051608 " />
            <polygon
               id="Line-Copy"
               transform="rotate(60,83,41)"
               points="81,50 85,50 85,48.051608 85,33.948392 85,32 81,32 81,33.948392 81,48.051608 " />
          </g>
        </g>
      </g>
    </g>
  </g>
  <metadata
     id="metadata52">
    <rdf:RDF>
      <cc:Work
         rdf:about="">
        <dc:title>Mark Copy</dc:title>
      </cc:Work>
    </rdf:RDF>
  </metadata>
</svg>
